<svg xmlns="http://www.w3.org/2000/svg" viewBox="0 0 24 24" fill="none">
  <defs>
    <linearGradient id="edge-gradient" x1="0%" y1="0%" x2="100%" y2="100%">
      <stop offset="0%" style="stop-color:#0078D4"/>
      <stop offset="100%" style="stop-color:#00BCF2"/>
    </linearGradient>
  </defs>
  <path d="M21.86 17.86q.14 0 .25.12.1.13.1.25t-.11.33l-.32.46-.43.53-.44.5q-.21.25-.38.42l-.22.23q-.58.53-1.34 1.04-.76.51-1.6.91-.86.4-1.74.64t-1.67.24q-.9 0-1.69-.28-.8-.28-1.48-.77-.68-.5-1.22-1.14-.53-.65-.9-1.39-.38-.73-.58-1.5-.2-.78-.2-1.55 0-1.03.35-2.01.35-.97.94-1.82.6-.86 1.38-1.57.79-.72 1.67-1.24.88-.53 1.8-.84.93-.31 1.8-.31.74 0 1.38.24.65.24 1.13.68.48.44.75 1.05.28.6.28 1.33 0 .75-.28 1.52-.27.76-.74 1.47-.47.7-1.1 1.32-.62.62-1.3 1.1-.7.47-1.4.77-.7.3-1.3.3-.5 0-.87-.25-.36-.24-.36-.73 0-.32.18-.63.19-.32.47-.6.28-.28.62-.52.33-.23.64-.43.3-.2.53-.4.22-.2.22-.38 0-.23-.24-.38-.24-.16-.62-.16-.36 0-.78.2-.42.21-.82.54-.4.33-.76.74-.36.42-.62.84-.26.43-.42.83-.15.4-.15.72 0 .55.4.9.42.35 1.1.35.7 0 1.5-.36.8-.37 1.55-.98.76-.62 1.4-1.4.65-.77 1.08-1.58.43-.8.43-1.5 0-.6-.3-1.04-.3-.43-.77-.7-.47-.26-1.03-.39-.57-.13-1.13-.13-.9 0-1.82.38-.93.38-1.77 1.03-.85.65-1.55 1.5-.7.84-1.15 1.78-.45.93-.45 1.86 0 .67.23 1.36.23.68.65 1.32.43.63 1.02 1.18.6.54 1.32.95.72.4 1.52.64.8.23 1.62.23.82 0 1.6-.22.77-.23 1.48-.62.7-.4 1.32-.93.62-.52 1.1-1.12l.2-.24q.1-.1.24-.1z" fill="url(#edge-gradient)"/>
</svg>
